<svg xmlns="http://www.w3.org/2000/svg" viewBox="0 0 215.77 56.85"><defs><style>.cls-1{fill:#fcc;}</style></defs><g id="Lager_2" data-name="Lager 2"><g id="Lager_1-2" data-name="Lager 1"><path class="cls-1" d="M37.05,17.44q3.83,3.47,3.83,10.07a22.93,22.93,0,0,1-.38,4.41L36.29,55.57a.81.81,0,0,1-.8.67H31.9a.81.81,0,0,1-.8-1l4-22.75a22.11,22.11,0,0,0,.3-3.73q0-5-2.73-7.6T25,18.62a14.89,14.89,0,0,0-10.26,3.8q-4.26,3.81-5.55,11.17v-.23L5.28,55.56a.81.81,0,0,1-.8.68H.82a.82.82,0,0,1-.81-1L7,15.42a.83.83,0,0,1,.81-.68h3.65a.83.83,0,0,1,.81,1l-1.12,6.18A17.89,17.89,0,0,1,17.93,16,19.59,19.59,0,0,1,26.82,14Q33.21,14,37.05,17.44Z"/><path class="cls-1" d="M55.23,15.7l-7,39.86a.81.81,0,0,1-.8.68H43.76a.82.82,0,0,1-.81-1l7-39.86a.83.83,0,0,1,.81-.68h3.66A.82.82,0,0,1,55.23,15.7Z"/><path class="cls-1" d="M68.94,36.1,83.63,54.92A.82.82,0,0,1,83,56.24H77.85a.82.82,0,0,1-.66-.33L63.61,37.7,60.46,55.56a.82.82,0,0,1-.81.68H56a.82.82,0,0,1-.8-1L64.86.68a.8.8,0,0,1,.8-.68h3.66a.81.81,0,0,1,.8,1L64.37,33.29,84.2,15a.82.82,0,0,1,.55-.22h4.9a.82.82,0,0,1,.55,1.43L69,35A.83.83,0,0,0,68.94,36.1Z"/><path class="cls-1" d="M92.11,24.21a23.73,23.73,0,0,1,8.43-7.45,22.81,22.81,0,0,1,10.72-2.62,16.22,16.22,0,0,1,9.38,2.66,13.08,13.08,0,0,1,5.29,6.91L130,.68a.81.81,0,0,1,.8-.68h3.66a.83.83,0,0,1,.81,1l-9.67,54.61a.82.82,0,0,1-.81.67h-3.65a.82.82,0,0,1-.81-1l1.5-8.31a21.32,21.32,0,0,1-7.52,7.1,20.83,20.83,0,0,1-10.64,2.78q-7.53,0-12-4.52t-4.52-12.2a25.84,25.84,0,0,1,.46-4.71A27.39,27.39,0,0,1,92.11,24.21Zm32.07,7.48a12.58,12.58,0,0,0-3.57-9.42,12.73,12.73,0,0,0-9.28-3.5,17.7,17.7,0,0,0-8.24,2,18,18,0,0,0-6.5,5.74A21.8,21.8,0,0,0,93,35.42a23.41,23.41,0,0,0-.38,3.87q0,6,3.53,9.46a12.64,12.64,0,0,0,9.24,3.46,17.37,17.37,0,0,0,8.17-2.05,18.82,18.82,0,0,0,6.61-5.85,21.69,21.69,0,0,0,3.61-8.82A22.16,22.16,0,0,0,124.18,31.69Z"/><path class="cls-1" d="M166.81,16.15a13.74,13.74,0,0,1,5.66,5.51,16.09,16.09,0,0,1,1.94,8,19.94,19.94,0,0,1-.3,3.65c-.25,1.27-.51,2.43-.76,3.48a.81.81,0,0,1-.8.62H139.48a.82.82,0,0,0-.81.71,16,16,0,0,0-.13,2q0,5.85,3.53,9a12.93,12.93,0,0,0,9,3.19,16.82,16.82,0,0,0,9.2-2.5,14.75,14.75,0,0,0,5.56-6.29.81.81,0,0,1,.73-.48h3.91a.81.81,0,0,1,.74,1.16A22.42,22.42,0,0,1,163.51,53a22.94,22.94,0,0,1-13.19,3.84q-7.75,0-12.43-4.45t-4.67-12.12a26.27,26.27,0,0,1,.46-4.79,27.57,27.57,0,0,1,4.59-11.32,23.45,23.45,0,0,1,8.55-7.45,24.06,24.06,0,0,1,11-2.58A18.63,18.63,0,0,1,166.81,16.15ZM169,29.87q0-5.4-3.42-8.29a13.11,13.11,0,0,0-8.74-2.88,17.26,17.26,0,0,0-13.68,6.68,18.7,18.7,0,0,0-3.42,7.05.82.82,0,0,0,.8,1h27.38a.82.82,0,0,0,.81-.69A18.56,18.56,0,0,0,169,29.87Z"/><path class="cls-1" d="M190.3,50.84l20-35.68a.83.83,0,0,1,.72-.42H215a.82.82,0,0,1,.7,1.23L192.58,55.83a.81.81,0,0,1-.7.41h-5a.82.82,0,0,1-.8-.64l-8.91-39.86a.83.83,0,0,1,.8-1h4a.82.82,0,0,1,.8.65Z"/></g></g></svg>